<?xml version="1.0" standalone="no"?>
<!DOCTYPE svg PUBLIC "-//W3C//DTD SVG 20010904//EN"
 "http://www.w3.org/TR/2001/REC-SVG-20010904/DTD/svg10.dtd">
<svg version="1.0" xmlns="http://www.w3.org/2000/svg"
 width="225.000000pt" height="225.000000pt" viewBox="0 0 225.000000 225.000000"
 preserveAspectRatio="xMidYMid meet">
<metadata>
Created by potrace 1.16, written by Peter Selinger 2001-2019
</metadata>
<g transform="translate(0.000000,225.000000) scale(0.100000,-0.100000)"
fill="#000000" stroke="none">
<path d="M0 1125 l0 -1125 1125 0 1125 0 0 1125 0 1125 -1125 0 -1125 0 0
-1125z m1696 505 c24 -12 54 -39 70 -62 l29 -41 3 -376 c3 -401 1 -427 -44
-481 -46 -53 -76 -60 -283 -60 l-187 0 -64 -65 c-35 -36 -69 -65 -75 -65 -5 0
-40 29 -78 65 l-67 65 -206 0 c-232 0 -257 6 -311 77 l-28 36 -3 390 c-3 379
-2 390 19 433 22 46 61 80 107 94 15 5 263 9 551 9 508 1 526 0 567 -19z"/>
<path d="M570 1622 c-31 -12 -53 -30 -75 -60 l-30 -44 -3 -374 c-3 -351 -2
-377 16 -418 11 -24 37 -56 58 -72 l37 -29 222 -5 222 -5 63 -63 64 -63 66 66
66 65 184 0 c158 0 191 3 225 19 49 22 73 48 91 98 16 47 20 716 4 775 -14 48
-72 105 -120 118 -24 7 -224 10 -542 9 -447 0 -508 -2 -548 -17z m902 -284 l3
-83 30 83 30 82 37 0 c21 0 38 -2 38 -5 0 -2 -16 -47 -36 -100 l-35 -95 35
-95 c20 -53 36 -98 36 -100 0 -3 -17 -5 -37 -5 l-38 0 -32 83 -32 82 0 -83 -1
-83 -37 3 -38 3 -3 175 c-3 215 -2 220 43 220 l34 0 3 -82z"/>
<path d="M1410 1220 l0 -190 25 0 c25 0 25 0 25 96 0 52 4 93 9 90 4 -3 23
-46 41 -96 30 -84 34 -90 60 -90 l28 0 -35 92 c-19 51 -32 101 -30 113 3 11
19 55 35 98 l30 77 -27 0 c-24 0 -29 -7 -54 -74 -15 -41 -34 -79 -42 -86 -13
-11 -15 -1 -15 74 0 85 0 86 -25 86 l-25 0 0 -190z"/>
</g>
</svg>
